HIERARCHY
ROOT Hips
{
  OFFSET 359.907 88.2267 203.676
  CHANNELS 6 Xposition Yposition Zposition Zrotation Xrotation Yrotation
  JOINT RightUpLeg
  {
    OFFSET -9.26903 -1.54356 0.00262897
    CHANNELS 6 Xposition Yposition Zposition Zrotation Xrotation Yrotation
    JOINT RightLeg
    {
      OFFSET -0.023212 -41.8943 0.058706
      CHANNELS 6 Xposition Yposition Zposition Zrotation Xrotation Yrotation
      JOINT RightFoot
      {
        OFFSET 0.303098 -43.2763 -0.239418
        CHANNELS 6 Xposition Yposition Zposition Zrotation Xrotation Yrotation
        End Site
        {
          OFFSET 0 -7.69 17.5
        }
      }
    }
  }
  JOINT LeftUpLeg
  {
    OFFSET 9.23586 -1.62607 -0.011623
    CHANNELS 6 Xposition Yposition Zposition Zrotation Xrotation Yrotation
    JOINT LeftLeg
    {
      OFFSET 0.012766 -41.8974 0.039501
      CHANNELS 6 Xposition Yposition Zposition Zrotation Xrotation Yrotation
      JOINT LeftFoot
      {
        OFFSET 0.287671 -40.3022 0.392443
        CHANNELS 6 Xposition Yposition Zposition Zrotation Xrotation Yrotation
        End Site
        {
          OFFSET 0 -7.69 17.5
        }
      }
    }
  }
  JOINT Spine
  {
    OFFSET 0.051711 14.3036 0.0760523
    CHANNELS 6 Xposition Yposition Zposition Zrotation Xrotation Yrotation
    JOINT Spine1
    {
      OFFSET 0.0267561 9.71162 0.0214309
      CHANNELS 6 Xposition Yposition Zposition Zrotation Xrotation Yrotation
      JOINT Spine2
      {
        OFFSET 0.0269 10.1251 0.00477722
        CHANNELS 6 Xposition Yposition Zposition Zrotation Xrotation Yrotation
        JOINT Spine3
        {
          OFFSET 0.0286755 9.71791 0.0146638
          CHANNELS 6 Xposition Yposition Zposition Zrotation Xrotation Yrotation
          JOINT Neck
          {
            OFFSET 0.066239 10.3876 0.0752812
            CHANNELS 6 Xposition Yposition Zposition Zrotation Xrotation Yrotation
            JOINT Head
            {
              OFFSET 0.0813099 9.46489 0.0622348
              CHANNELS 6 Xposition Yposition Zposition Zrotation Xrotation Yrotation
              End Site
              {
                OFFSET 0 15.95 0
              }
            }
          }
          JOINT RightShoulder
          {
            OFFSET -3.18306 6.92695 0.0146943
            CHANNELS 6 Xposition Yposition Zposition Zrotation Xrotation Yrotation
            JOINT RightArm
            {
              OFFSET -12.788 0.048725 0.0445112
              CHANNELS 6 Xposition Yposition Zposition Zrotation Xrotation Yrotation
              JOINT RightForeArm
              {
                OFFSET -26.5108 -0.027622 0.115761
                CHANNELS 6 Xposition Yposition Zposition Zrotation Xrotation Yrotation
                JOINT RightHand
                {
                  OFFSET -25.9914 -0.061889 0.048423
                  CHANNELS 6 Xposition Yposition Zposition Zrotation Xrotation Yrotation
                  JOINT RightHandThumb1
                  {
                    OFFSET -2.48905 0.190105 3.12053
                    CHANNELS 6 Xposition Yposition Zposition Zrotation Xrotation Yrotation
                    JOINT RightHandThumb2
                    {
                      OFFSET -3.68274 0 0
                      CHANNELS 6 Xposition Yposition Zposition Zrotation Xrotation Yrotation
                      JOINT RightHandThumb3
                      {
                        OFFSET -2.55832 0 0
                        CHANNELS 6 Xposition Yposition Zposition Zrotation Xrotation Yrotation
                        End Site
                        {
                          OFFSET -2.194 0 0
                        }
                      }
                    }
                  }
                  JOINT RightInHandIndex
                  {
                    OFFSET -3.22368 0.508421 1.97842
                    CHANNELS 6 Xposition Yposition Zposition Zrotation Xrotation Yrotation
                    JOINT RightHandIndex1
                    {
                      OFFSET -5.21684 -0.091368 0.999158
                      CHANNELS 6 Xposition Yposition Zposition Zrotation Xrotation Yrotation
                      JOINT RightHandIndex2
                      {
                        OFFSET -3.61937 0 0
                        CHANNELS 6 Xposition Yposition Zposition Zrotation Xrotation Yrotation
                        JOINT RightHandIndex3
                        {
                          OFFSET -2.0521 0 0
                          CHANNELS 6 Xposition Yposition Zposition Zrotation Xrotation Yrotation
                          End Site
                          {
                            OFFSET -1.805 0 0
                          }
                        }
                      }
                    }
                  }
                  JOINT RightInHandMiddle
                  {
                    OFFSET -3.38211 0.517263 0.756737
                    CHANNELS 6 Xposition Yposition Zposition Zrotation Xrotation Yrotation
                    JOINT RightHandMiddle1
                    {
                      OFFSET -5.17411 -0.084 0.313895
                      CHANNELS 6 Xposition Yposition Zposition Zrotation Xrotation Yrotation
                      JOINT RightHandMiddle2
                      {
                        OFFSET -3.94947 0 0
                        CHANNELS 6 Xposition Yposition Zposition Zrotation Xrotation Yrotation
                        JOINT RightHandMiddle3
                        {
                          OFFSET -2.47579 0 0
                          CHANNELS 6 Xposition Yposition Zposition Zrotation Xrotation Yrotation
                          End Site
                          {
                            OFFSET -1.975 0 0
                          }
                        }
                      }
                    }
                  }
                  JOINT RightInHandRing
                  {
                    OFFSET -3.36516 0.537895 -0.128947
                    CHANNELS 6 Xposition Yposition Zposition Zrotation Xrotation Yrotation
                    JOINT RightHandRing1
                    {
                      OFFSET -4.63474 -0.022105 -0.478947
                      CHANNELS 6 Xposition Yposition Zposition Zrotation Xrotation Yrotation
                      JOINT RightHandRing2
                      {
                        OFFSET -3.44238 0 0
                        CHANNELS 6 Xposition Yposition Zposition Zrotation Xrotation Yrotation
                        JOINT RightHandRing3
                        {
                          OFFSET -2.3881 0 0
                          CHANNELS 6 Xposition Yposition Zposition Zrotation Xrotation Yrotation
                          End Site
                          {
                            OFFSET -1.857 0 0
                          }
                        }
                      }
                    }
                  }
                  JOINT RightInHandPinky
                  {
                    OFFSET -3.16105 0.469368 -1.20179
                    CHANNELS 6 Xposition Yposition Zposition Zrotation Xrotation Yrotation
                    JOINT RightHandPinky1
                    {
                      OFFSET -4.14105 -0.022105 -1.09053
                      CHANNELS 6 Xposition Yposition Zposition Zrotation Xrotation Yrotation
                      JOINT RightHandPinky2
                      {
                        OFFSET -2.75653 0 0
                        CHANNELS 6 Xposition Yposition Zposition Zrotation Xrotation Yrotation
                        JOINT RightHandPinky3
                        {
                          OFFSET -1.74189 0 0
                          CHANNELS 6 Xposition Yposition Zposition Zrotation Xrotation Yrotation
                          End Site
                          {
                            OFFSET -1.645 0 0
                          }
                        }
                      }
                    }
                  }
                }
              }
            }
          }
          JOINT LeftShoulder
          {
            OFFSET 3.23107 6.91904 -0.00126745
            CHANNELS 6 Xposition Yposition Zposition Zrotation Xrotation Yrotation
            JOINT LeftArm
            {
              OFFSET 12.8196 -0.036347 -0.0488684
              CHANNELS 6 Xposition Yposition Zposition Zrotation Xrotation Yrotation
              JOINT LeftForeArm
              {
                OFFSET 26.4774 0.120325 -0.211634
                CHANNELS 6 Xposition Yposition Zposition Zrotation Xrotation Yrotation
                JOINT LeftHand
                {
                  OFFSET 25.9211 -0.025712 0.249631
                  CHANNELS 6 Xposition Yposition Zposition Zrotation Xrotation Yrotation
                  JOINT LeftHandThumb1
                  {
                    OFFSET 2.48905 0.190105 3.12053
                    CHANNELS 6 Xposition Yposition Zposition Zrotation Xrotation Yrotation
                    JOINT LeftHandThumb2
                    {
                      OFFSET 3.68274 0 0
                      CHANNELS 6 Xposition Yposition Zposition Zrotation Xrotation Yrotation
                      JOINT LeftHandThumb3
                      {
                        OFFSET 2.55832 0 0
                        CHANNELS 6 Xposition Yposition Zposition Zrotation Xrotation Yrotation
                        End Site
                        {
                          OFFSET 2.194 0 0
                        }
                      }
                    }
                  }
                  JOINT LeftInHandIndex
                  {
                    OFFSET 3.22368 0.508421 1.97842
                    CHANNELS 6 Xposition Yposition Zposition Zrotation Xrotation Yrotation
                    JOINT LeftHandIndex1
                    {
                      OFFSET 5.21684 -0.091368 0.999158
                      CHANNELS 6 Xposition Yposition Zposition Zrotation Xrotation Yrotation
                      JOINT LeftHandIndex2
                      {
                        OFFSET 3.61937 0 0
                        CHANNELS 6 Xposition Yposition Zposition Zrotation Xrotation Yrotation
                        JOINT LeftHandIndex3
                        {
                          OFFSET 2.0521 0 0
                          CHANNELS 6 Xposition Yposition Zposition Zrotation Xrotation Yrotation
                          End Site
                          {
                            OFFSET 1.805 0 0
                          }
                        }
                      }
                    }
                  }
                  JOINT LeftInHandMiddle
                  {
                    OFFSET 3.38211 0.517263 0.756737
                    CHANNELS 6 Xposition Yposition Zposition Zrotation Xrotation Yrotation
                    JOINT LeftHandMiddle1
                    {
                      OFFSET 5.17411 -0.084 0.313895
                      CHANNELS 6 Xposition Yposition Zposition Zrotation Xrotation Yrotation
                      JOINT LeftHandMiddle2
                      {
                        OFFSET 3.94947 0 0
                        CHANNELS 6 Xposition Yposition Zposition Zrotation Xrotation Yrotation
                        JOINT LeftHandMiddle3
                        {
                          OFFSET 2.47579 0 0
                          CHANNELS 6 Xposition Yposition Zposition Zrotation Xrotation Yrotation
                          End Site
                          {
                            OFFSET 1.975 0 0
                          }
                        }
                      }
                    }
                  }
                  JOINT LeftInHandRing
                  {
                    OFFSET 3.36516 0.537895 -0.128947
                    CHANNELS 6 Xposition Yposition Zposition Zrotation Xrotation Yrotation
                    JOINT LeftHandRing1
                    {
                      OFFSET 4.63474 -0.022105 -0.478947
                      CHANNELS 6 Xposition Yposition Zposition Zrotation Xrotation Yrotation
                      JOINT LeftHandRing2
                      {
                        OFFSET 3.44238 0 0
                        CHANNELS 6 Xposition Yposition Zposition Zrotation Xrotation Yrotation
                        JOINT LeftHandRing3
                        {
                          OFFSET 2.3881 0 0
                          CHANNELS 6 Xposition Yposition Zposition Zrotation Xrotation Yrotation
                          End Site
                          {
                            OFFSET 1.857 0 0
                          }
                        }
                      }
                    }
                  }
                  JOINT LeftInHandPinky
                  {
                    OFFSET 3.16105 0.469368 -1.20179
                    CHANNELS 6 Xposition Yposition Zposition Zrotation Xrotation Yrotation
                    JOINT LeftHandPinky1
                    {
                      OFFSET 4.14105 -0.022105 -1.09053
                      CHANNELS 6 Xposition Yposition Zposition Zrotation Xrotation Yrotation
                      JOINT LeftHandPinky2
                      {
                        OFFSET 2.75653 0 0
                        CHANNELS 6 Xposition Yposition Zposition Zrotation Xrotation Yrotation
                        JOINT LeftHandPinky3
                        {
                          OFFSET 1.74189 0 0
                          CHANNELS 6 Xposition Yposition Zposition Zrotation Xrotation Yrotation
                          End Site
                          {
                            OFFSET 1.645 0 0
                          }
                        }
                      }
                    }
                  }
                }
              }
            }
          }
        }
      }
    }
  }
}
MOTION
Frames:	3
Frame Time:	0.00833333
355.322 87.2255 209.109 25.2065 5.76775 -113.931 -9.32445 -1.5981 -0.00636191 27.9122 -49.3195 25.7483 -0.117187 -41.8666 -0.00238827 -8.26029 15.9011 -5.151 1.36578 -44.1816 0.0260543 10.4322 14.0755 43.3395 9.23332 -1.56976 0.0435636 36.4489 -26.0663 22.0179 0.0334507 -41.9065 0.0466094 -21.6932 39.2621 30.2888 0.458329 -40.5294 -2.51451 -6.79443 -24.3986 -6.44776 0.018642 14.3023 0.0484501 -5.352 -2.35882 -16.8857 0.02277 9.70849 0.0197684 -1.27902 -0.88328 -4.19097 0.00843096 10.1247 -0.0303556 -2.12817 -1.53964 -6.75768 0.0220476 9.71782 0.0104678 -0.560821 -0.330212 2.74948 -0.00442 10.3817 0.143269 -0.794175 -4.68566 42.0442 -0.127399 9.4532 0.0535926 -8.91909 6.99509 26.284 -3.20037 6.93609 0.0261647 7.64194 4.14416 -1.34925 -12.784 0.0130628 -0.00114095 33.572 -64.8858 -4.59346 -26.4486 0.0163817 -0.049994 32.9908 7.13516 125.604 -26.0064 -0.0382496 0.0344873 9.37735 -15.2121 7.81949 -2.48905 0.190105 3.12053 28.184 10.7294 19.1592 -3.68274 5.68434e-14 0 -2.63498e-16 7.95139e-16 -10 -2.55832 0 0 -1.01488e-14 -3.18055e-15 -10 -3.22368 0.508421 1.97842 3.77691e-15 0 -7.95139e-16 -5.21684 -0.091368 0.999158 19.9818 0.871897 2.3964 -3.61937 0 0 24 -1.39149e-15 -3.18055e-15 -2.0521 -2.84217e-14 0 20 0 -3.18055e-15 -3.38211 0.517263 0.756737 3.77691e-15 0 -7.95139e-16 -5.17411 -0.084 0.313895 20 0 -0 -3.94947 5.68434e-14 0 24 -1.59028e-15 3.18055e-15 -2.47579 0 0 20 0 -0 -3.36516 0.537895 -0.128947 3.77691e-15 0 -7.95139e-16 -4.63474 -0.022105 -0.478947 19.9748 -1.02565 -2.81938 -3.44238 -5.68434e-14 5.68434e-14 24 -3.18055e-15 -0 -2.3881 0 0 20 -3.97569e-16 -0 -3.16105 0.469368 -1.20179 3.77691e-15 0 -7.95139e-16 -4.14105 -0.022105 -1.09053 19.7815 -3.00948 -8.30515 -2.75653 5.68434e-14 0 24 -3.18055e-15 -0 -1.74189 0 -2.84217e-14 20 -4.77083e-15 -1.59028e-15 3.20684 6.94674 -0.0242943 6.56646 -17.3217 -51.9446 12.8 -0.000752076 -0.0336566 -8.32083 25.7887 -114.906 26.4772 -0.033266 0.0239094 37.4501 -8.77946 -34.7879 25.9813 0.0150251 0.00876092 -34.329 -8.57671 -12.856 2.48905 0.190105 3.12053 -28.184 10.7294 -19.1592 3.68274 0 1.42109e-14 -3.94183e-15 3.18055e-15 10 2.55832 5.68434e-14 0 -3.54385e-15 6.36111e-15 10 3.22368 0.508421 1.97842 -3.97569e-16 1.59028e-15 -0 5.21684 -0.091368 0.999158 -19.9818 0.871897 -2.3964 3.61937 2.84217e-14 2.84217e-14 -24 -7.95139e-16 -0 2.0521 0 0 -20 0 -1.59028e-15 3.38211 0.517263 0.756737 -3.97569e-16 1.59028e-15 -0 5.17411 -0.084 0.313895 -20 -7.45443e-17 1.59028e-15 3.94947 -2.84217e-14 0 -24 -1.59028e-15 3.18055e-15 2.47579 0 2.84217e-14 -20 0 1.59028e-15 3.36516 0.537895 -0.128947 -3.97569e-16 1.59028e-15 -0 4.63474 -0.022105 -0.478947 -19.9748 -1.02565 2.81938 3.44238 2.84217e-14 -5.68434e-14 -24 -7.95139e-16 -0 2.3881 0 5.68434e-14 -20 0 -1.59028e-15 3.16105 0.469368 -1.20179 -3.97569e-16 1.59028e-15 -0 4.14105 -0.022105 -1.09053 -19.7815 -3.00948 8.30515 2.75653 0 0 -24 1.59028e-15 -0 1.74189 -5.68434e-14 0 -20 -3.18055e-15 -1.59028e-15 
355.332 87.2131 209.12 25.1624 5.82676 -114.187 -9.3137 -1.61051 0.00540269 28.163 -49.2207 25.93 -0.113386 -41.8664 -0.00505724 -8.2437 15.9569 -5.01814 1.3629 -44.1907 0.0202586 10.426 14.0439 43.3151 9.23405 -1.56906 0.010561 36.5556 -25.9083 22.1825 0.032638 -41.897 0.0328444 -21.6911 39.291 30.3357 0.478498 -40.513 -2.52171 -6.77701 -24.3929 -6.44721 0.0180114 14.3024 0.0550834 -5.31074 -2.35036 -16.7649 0.023966 9.70832 0.0199208 -1.26926 -0.877096 -4.16103 0.00804271 10.1247 -0.0262006 -2.1123 -1.5286 -6.7124 0.0217431 9.71782 0.0103382 -0.560745 -0.328182 2.74959 -0.00405269 10.3818 0.139712 -0.793012 -4.65871 42.0411 -0.121504 9.45455 0.0525756 -8.90822 7.02641 26.2968 -3.20038 6.93598 0.0227536 7.73113 4.11705 -1.40206 -12.7845 0.0128191 -0.00128332 34.1563 -64.7345 -4.26669 -26.442 0.0104271 -0.049848 32.8806 6.92776 125.647 -26.0065 -0.0421753 0.0466223 9.62931 -15.2198 8.04406 -2.48905 0.190105 3.12053 28.184 10.7294 19.1592 -3.68274 0 0 8.41226e-16 4.77083e-15 -10 -2.55832 5.68434e-14 2.84217e-14 1.34585e-15 4.77083e-15 -10 -3.22368 0.508421 1.97842 -4.67144e-15 1.59028e-15 7.95139e-16 -5.21684 -0.091368 0.999158 19.9818 0.871897 2.3964 -3.61937 0 0 24 -5.96354e-16 -0 -2.0521 2.84217e-14 5.68434e-14 20 0 3.18055e-15 -3.38211 0.517263 0.756737 -4.67144e-15 1.59028e-15 7.95139e-16 -5.17411 -0.084 0.313895 20 -7.95139e-16 1.59028e-15 -3.94947 5.68434e-14 0 24 3.97569e-16 -0 -2.47579 2.84217e-14 0 20 -5.96354e-16 6.36111e-15 -3.36516 0.537895 -0.128947 -4.67144e-15 1.59028e-15 7.95139e-16 -4.63474 -0.022105 -0.478947 19.9748 -1.02565 -2.81938 -3.44238 0 0 24 -7.95139e-16 -0 -2.3881 2.84217e-14 0 20 7.95139e-16 3.18055e-15 -3.16105 0.469368 -1.20179 -4.67144e-15 1.59028e-15 7.95139e-16 -4.14105 -0.022105 -1.09053 19.7815 -3.00948 -8.30515 -2.75653 0 0 24 1.59028e-15 -0 -1.74189 0 0 20 2.38542e-15 -7.95139e-16 3.20565 6.94649 -0.0239767 6.52508 -17.2771 -51.9042 12.7672 -0.00195419 -0.0547105 -8.2805 25.7775 -114.865 26.477 -0.0525735 0.0600132 37.2032 -8.66236 -34.7178 26.005 0.0525923 0.0129429 -34.7883 -8.62791 -12.7207 2.48905 0.190105 3.12053 -28.184 10.7294 -19.1592 3.68274 0 0 4.14368e-15 -3.18055e-15 10 2.55832 0 0 5.28195e-15 -4.77083e-15 10 3.22368 0.508421 1.97842 -2.98177e-16 1.19271e-15 1.59028e-15 5.21684 -0.091368 0.999158 -19.9818 0.871897 -2.3964 3.61937 0 0 -24 -1.98785e-15 3.18055e-15 2.0521 0 2.84217e-14 -20 -1.59028e-15 3.18055e-15 3.38211 0.517263 0.756737 -2.98177e-16 1.19271e-15 1.59028e-15 5.17411 -0.084 0.313895 -20 -2.98177e-16 -0 3.94947 -2.84217e-14 -2.84217e-14 -24 7.95139e-16 -4.77083e-15 2.47579 0 0 -20 -1.59028e-15 -3.18055e-15 3.36516 0.537895 -0.128947 -2.98177e-16 1.19271e-15 1.59028e-15 4.63474 -0.022105 -0.478947 -19.9748 -1.02565 2.81938 3.44238 0 0 -24 -3.18055e-15 -0 2.3881 -5.68434e-14 0 -20 -1.59028e-15 -0 3.16105 0.469368 -1.20179 -2.98177e-16 1.19271e-15 1.59028e-15 4.14105 -0.022105 -1.09053 -19.7815 -3.00948 8.30515 2.75653 2.84217e-14 0 -24 4.77083e-15 -9.54166e-15 1.74189 0 0 -20 0 -6.36111e-15 
355.347 87.2042 209.122 25.1472 5.90026 -114.22 -9.31672 -1.61098 0.00125248 28.2416 -49.1783 25.937 -0.112324 -41.8662 -0.00168067 -8.2781 15.9417 -5.04165 1.37839 -44.2024 -0.00520901 10.4627 14.0115 43.2606 9.23481 -1.56867 0.0113094 36.6188 -25.8957 22.1986 0.0318532 -41.8888 0.0195931 -21.6777 39.3337 30.3379 0.49838 -40.4984 -2.51821 -6.76057 -24.3922 -6.44485 0.0141047 14.3025 0.0540263 -5.26907 -2.32813 -16.7508 0.0248638 9.70815 0.0200659 -1.25945 -0.869188 -4.15862 0.0076669 10.1247 -0.0220335 -2.09608 -1.51511 -6.70947 0.0214408 9.71782 0.0101347 -0.560744 -0.325139 2.74967 -0.00399251 10.382 0.135141 -0.794204 -4.62762 42.0056 -0.116251 9.45547 0.0515337 -8.88794 7.04564 26.2917 -3.20047 6.93592 0.0193402 7.82506 4.08569 -1.4531 -12.7746 0.00102251 -0.00147035 34.6187 -64.598 -3.98991 -26.4902 0.0192094 -0.0313693 32.6968 6.85298 125.804 -26.0064 -0.012452 0.00959106 9.62512 -15.3022 8.03005 -2.48905 0.190105 3.12053 28.184 10.7294 19.1592 -3.68274 0 5.68434e-14 -1.22802e-15 -2.38542e-15 -10 -2.55832 0 0 -4.88371e-15 -7.95139e-16 -10 -3.22368 0.508421 1.97842 3.8763e-15 1.59028e-15 -0 -5.21684 -0.091368 0.999158 19.9818 0.871897 2.3964 -3.61937 0 5.68434e-14 24 3.97569e-16 3.18055e-15 -2.0521 0 0 20 -1.59028e-15 -0 -3.38211 0.517263 0.756737 3.8763e-15 1.59028e-15 -0 -5.17411 -0.084 0.313895 20 1.59028e-15 -1.59028e-15 -3.94947 0 0 24 2.38542e-15 -0 -2.47579 0 5.68434e-14 20 1.59028e-15 -1.59028e-15 -3.36516 0.537895 -0.128947 3.8763e-15 1.59028e-15 -0 -4.63474 -0.022105 -0.478947 19.9748 -1.02565 -2.81938 -3.44238 0 0 24 -1.59028e-15 -1.59028e-15 -2.3881 -2.84217e-14 5.68434e-14 20 7.95139e-16 -0 -3.16105 0.469368 -1.20179 3.8763e-15 1.59028e-15 -0 -4.14105 -0.022105 -1.09053 19.7815 -3.00948 -8.30515 -2.75653 5.68434e-14 0 24 -1.59028e-15 -0 -1.74189 0 2.84217e-14 20 3.18055e-15 -7.95139e-16 3.20472 6.94623 -0.0236127 6.504 -17.2597 -51.8859 12.7592 -0.0029638 -0.0587697 -8.27147 25.85 -114.929 26.4767 -0.0522181 0.0676079 37.1012 -8.45541 -34.5241 25.9851 0.0132938 -0.0158501 -34.705 -8.60755 -12.7984 2.48905 0.190105 3.12053 -28.184 10.7294 -19.1592 3.68274 0 0 -9.91881e-15 1.59028e-15 10 2.55832 0 0 -7.09861e-15 4.77083e-15 10 3.22368 0.508421 1.97842 1.98785e-15 -7.95139e-16 -3.18055e-15 5.21684 -0.091368 0.999158 -19.9818 0.871897 -2.3964 3.61937 0 0 -24 -1.59028e-15 -1.59028e-15 2.0521 0 0 -20 0 1.59028e-15 3.38211 0.517263 0.756737 1.98785e-15 -7.95139e-16 -3.18055e-15 5.17411 -0.084 0.313895 -20 -4.96962e-16 -1.59028e-15 3.94947 0 -2.84217e-14 -24 7.95139e-16 -1.59028e-15 2.47579 0 0 -20 1.59028e-15 -1.59028e-15 3.36516 0.537895 -0.128947 1.98785e-15 -7.95139e-16 -3.18055e-15 4.63474 -0.022105 -0.478947 -19.9748 -1.02565 2.81938 3.44238 2.84217e-14 0 -24 -7.95139e-16 -3.18055e-15 2.3881 0 5.68434e-14 -20 4.77083e-15 -1.59028e-15 3.16105 0.469368 -1.20179 1.98785e-15 -7.95139e-16 -3.18055e-15 4.14105 -0.022105 -1.09053 -19.7815 -3.00948 8.30515 2.75653 -2.84217e-14 0 -24 1.59028e-15 -0 1.74189 5.68434e-14 0 -20 -3.18055e-15 4.77083e-15 
